# Blender v3.1.2 OBJ File: 'HangerScene_02.blend'
# www.blender.org
mtllib TS_Floor_B_lowpoly.mtl
o TS_Floor_B_lowpoly_Plane.010
v 0.000000 -0.500000 0.000000
v -0.500000 0.000000 0.000000
v -0.500000 -0.500000 0.000000
v 0.000000 0.000000 0.000000
v 0.000000 -0.416667 0.000000
v 0.000000 -0.333333 0.000000
v 0.000000 -0.250000 0.000000
v 0.000000 -0.166667 0.000000
v 0.000000 -0.083333 0.000000
v -0.500000 -0.083333 0.000000
v -0.500000 -0.166667 0.000000
v -0.500000 -0.250000 0.000000
v -0.500000 -0.333333 0.000000
v -0.500000 -0.416667 0.000000
v -0.416667 -0.500000 0.000000
v -0.333333 -0.500000 0.000000
v -0.250000 -0.500000 0.000000
v -0.166667 -0.500000 0.000000
v -0.083333 -0.500000 0.000000
v -0.083333 0.000000 0.000000
v -0.166667 0.000000 0.000000
v -0.250000 0.000000 0.000000
v -0.333333 0.000000 0.000000
v -0.416667 0.000000 0.000000
v -0.083333 -0.416667 0.000000
v -0.166667 -0.416667 0.000000
v -0.250000 -0.416667 0.000000
v -0.333333 -0.416667 0.000000
v -0.416667 -0.416667 0.000000
v -0.083333 -0.333333 0.000000
v -0.166667 -0.333333 0.000000
v -0.250000 -0.333333 0.000000
v -0.333333 -0.333333 0.000000
v -0.416667 -0.333333 0.000000
v -0.083333 -0.250000 0.000000
v -0.166667 -0.250000 0.000000
v -0.250000 -0.250000 0.000000
v -0.333333 -0.250000 0.000000
v -0.416667 -0.250000 0.000000
v -0.083333 -0.166667 0.000000
v -0.166667 -0.166667 0.000000
v -0.250000 -0.166667 0.000000
v -0.333333 -0.166667 0.000000
v -0.416667 -0.166667 0.000000
v -0.083333 -0.083333 0.000000
v -0.166667 -0.083333 0.000000
v -0.250000 -0.083333 0.000000
v -0.333333 -0.083333 0.000000
v -0.416667 -0.083333 0.000000
vt 0.416667 0.416667
vt 0.500000 0.416667
vt 0.500000 0.500000
vt 0.416667 0.500000
vt 0.416667 0.000000
vt 0.500000 0.000000
vt 0.500000 0.083333
vt 0.416667 0.083333
vt 0.500000 0.166667
vt 0.416667 0.166667
vt 0.500000 0.250000
vt 0.416667 0.250000
vt 0.500000 0.333333
vt 0.416667 0.333333
vt 0.000000 0.333333
vt 0.083333 0.333333
vt 0.083333 0.416667
vt 0.000000 0.416667
vt 0.166667 0.333333
vt 0.166667 0.416667
vt 0.250000 0.333333
vt 0.250000 0.416667
vt 0.333333 0.333333
vt 0.333333 0.416667
vt 0.000000 0.250000
vt 0.083333 0.250000
vt 0.166667 0.250000
vt 0.250000 0.250000
vt 0.333333 0.250000
vt 0.000000 0.166667
vt 0.083333 0.166667
vt 0.166667 0.166667
vt 0.250000 0.166667
vt 0.333333 0.166667
vt 0.000000 0.083333
vt 0.083333 0.083333
vt 0.166667 0.083333
vt 0.250000 0.083333
vt 0.333333 0.083333
vt 0.000000 0.000000
vt 0.083333 0.000000
vt 0.166667 0.000000
vt 0.250000 0.000000
vt 0.333333 0.000000
vt 0.083333 0.500000
vt 0.000000 0.500000
vt 0.166667 0.500000
vt 0.250000 0.500000
vt 0.333333 0.500000
vn 0.0000 0.0000 1.0000
usemtl TS_F_LargeSplit_01
s off
f 45/1/1 9/2/1 4/3/1 20/4/1
f 19/5/1 1/6/1 5/7/1 25/8/1
f 25/8/1 5/7/1 6/9/1 30/10/1
f 30/10/1 6/9/1 7/11/1 35/12/1
f 35/12/1 7/11/1 8/13/1 40/14/1
f 40/14/1 8/13/1 9/2/1 45/1/1
f 11/15/1 44/16/1 49/17/1 10/18/1
f 44/16/1 43/19/1 48/20/1 49/17/1
f 43/19/1 42/21/1 47/22/1 48/20/1
f 42/21/1 41/23/1 46/24/1 47/22/1
f 41/23/1 40/14/1 45/1/1 46/24/1
f 12/25/1 39/26/1 44/16/1 11/15/1
f 39/26/1 38/27/1 43/19/1 44/16/1
f 38/27/1 37/28/1 42/21/1 43/19/1
f 37/28/1 36/29/1 41/23/1 42/21/1
f 36/29/1 35/12/1 40/14/1 41/23/1
f 13/30/1 34/31/1 39/26/1 12/25/1
f 34/31/1 33/32/1 38/27/1 39/26/1
f 33/32/1 32/33/1 37/28/1 38/27/1
f 32/33/1 31/34/1 36/29/1 37/28/1
f 31/34/1 30/10/1 35/12/1 36/29/1
f 14/35/1 29/36/1 34/31/1 13/30/1
f 29/36/1 28/37/1 33/32/1 34/31/1
f 28/37/1 27/38/1 32/33/1 33/32/1
f 27/38/1 26/39/1 31/34/1 32/33/1
f 26/39/1 25/8/1 30/10/1 31/34/1
f 3/40/1 15/41/1 29/36/1 14/35/1
f 15/41/1 16/42/1 28/37/1 29/36/1
f 16/42/1 17/43/1 27/38/1 28/37/1
f 17/43/1 18/44/1 26/39/1 27/38/1
f 18/44/1 19/5/1 25/8/1 26/39/1
f 10/18/1 49/17/1 24/45/1 2/46/1
f 49/17/1 48/20/1 23/47/1 24/45/1
f 48/20/1 47/22/1 22/48/1 23/47/1
f 47/22/1 46/24/1 21/49/1 22/48/1
f 46/24/1 45/1/1 20/4/1 21/49/1
