# Blender v3.1.2 OBJ File: 'HangerScene_02.blend'
# www.blender.org
mtllib TS_Floor_A_lowpoly.mtl
o TS_Floor_A_lowpoly_Plane.009
v -0.500000 0.500000 0.000000
v 0.500000 0.500000 0.000000
v -0.500000 0.000000 0.000000
v 0.500000 0.000000 0.000000
v 0.000000 0.500000 0.000000
v 0.000000 0.000000 0.000000
v 0.500000 0.083333 0.000000
v 0.500000 0.166667 0.000000
v 0.500000 0.250000 0.000000
v 0.500000 0.333333 0.000000
v 0.500000 0.416667 0.000000
v -0.500000 0.416667 0.000000
v -0.500000 0.333333 0.000000
v -0.500000 0.250000 0.000000
v -0.500000 0.166667 0.000000
v -0.500000 0.083333 0.000000
v 0.000000 0.083333 0.000000
v 0.000000 0.166667 0.000000
v 0.000000 0.250000 0.000000
v 0.000000 0.333333 0.000000
v 0.000000 0.416667 0.000000
v 0.416667 0.500000 0.000000
v 0.333333 0.500000 0.000000
v 0.250000 0.500000 0.000000
v 0.166667 0.500000 0.000000
v 0.083333 0.500000 0.000000
v 0.416667 0.000000 0.000000
v 0.333333 0.000000 0.000000
v 0.250000 0.000000 0.000000
v 0.166667 0.000000 0.000000
v 0.083333 0.000000 0.000000
v 0.416667 0.083333 0.000000
v 0.333333 0.083333 0.000000
v 0.250000 0.083333 0.000000
v 0.166667 0.083333 0.000000
v 0.083333 0.083333 0.000000
v 0.416667 0.166667 0.000000
v 0.333333 0.166667 0.000000
v 0.250000 0.166667 0.000000
v 0.166667 0.166667 0.000000
v 0.083333 0.166667 0.000000
v 0.416667 0.250000 0.000000
v 0.333333 0.250000 0.000000
v 0.250000 0.250000 0.000000
v 0.166667 0.250000 0.000000
v 0.083333 0.250000 0.000000
v 0.416667 0.333333 0.000000
v 0.333333 0.333333 0.000000
v 0.250000 0.333333 0.000000
v 0.166667 0.333333 0.000000
v 0.083333 0.333333 0.000000
v 0.416667 0.416667 0.000000
v 0.333333 0.416667 0.000000
v 0.250000 0.416667 0.000000
v 0.166667 0.416667 0.000000
v 0.083333 0.416667 0.000000
v -0.083333 0.500000 0.000000
v -0.166667 0.500000 0.000000
v -0.250000 0.500000 0.000000
v -0.333333 0.500000 0.000000
v -0.416667 0.500000 0.000000
v -0.083333 0.000000 0.000000
v -0.166667 0.000000 0.000000
v -0.250000 0.000000 0.000000
v -0.333333 0.000000 0.000000
v -0.416667 0.000000 0.000000
v -0.083333 0.083333 0.000000
v -0.166667 0.083333 0.000000
v -0.250000 0.083333 0.000000
v -0.333333 0.083333 0.000000
v -0.416667 0.083333 0.000000
v -0.083333 0.166667 0.000000
v -0.166667 0.166667 0.000000
v -0.250000 0.166667 0.000000
v -0.333333 0.166667 0.000000
v -0.416667 0.166667 0.000000
v -0.083333 0.250000 0.000000
v -0.166667 0.250000 0.000000
v -0.250000 0.250000 0.000000
v -0.333333 0.250000 0.000000
v -0.416667 0.250000 0.000000
v -0.083333 0.333333 0.000000
v -0.166667 0.333333 0.000000
v -0.250000 0.333333 0.000000
v -0.333333 0.333333 0.000000
v -0.416667 0.333333 0.000000
v -0.083333 0.416667 0.000000
v -0.166667 0.416667 0.000000
v -0.250000 0.416667 0.000000
v -0.333333 0.416667 0.000000
v -0.416667 0.416667 0.000000
vt 0.916667 0.916667
vt 1.000000 0.916667
vt 1.000000 1.000000
vt 0.916667 1.000000
vt 0.416667 0.916667
vt 0.500000 0.916667
vt 0.500000 1.000000
vt 0.416667 1.000000
vt 0.416667 0.500000
vt 0.500000 0.500000
vt 0.500000 0.583333
vt 0.416667 0.583333
vt 0.500000 0.666667
vt 0.416667 0.666667
vt 0.500000 0.750000
vt 0.416667 0.750000
vt 0.500000 0.833333
vt 0.416667 0.833333
vt 0.916667 0.500000
vt 1.000000 0.500000
vt 1.000000 0.583333
vt 0.916667 0.583333
vt 1.000000 0.666667
vt 0.916667 0.666667
vt 1.000000 0.750000
vt 0.916667 0.750000
vt 1.000000 0.833333
vt 0.916667 0.833333
vt 0.583333 0.833333
vt 0.583333 0.916667
vt 0.666667 0.833333
vt 0.666667 0.916667
vt 0.750000 0.833333
vt 0.750000 0.916667
vt 0.833333 0.833333
vt 0.833333 0.916667
vt 0.583333 0.750000
vt 0.666667 0.750000
vt 0.750000 0.750000
vt 0.833333 0.750000
vt 0.583333 0.666667
vt 0.666667 0.666667
vt 0.750000 0.666667
vt 0.833333 0.666667
vt 0.583333 0.583333
vt 0.666667 0.583333
vt 0.750000 0.583333
vt 0.833333 0.583333
vt 0.583333 0.500000
vt 0.666667 0.500000
vt 0.750000 0.500000
vt 0.833333 0.500000
vt 0.583333 1.000000
vt 0.666667 1.000000
vt 0.750000 1.000000
vt 0.833333 1.000000
vt 0.000000 0.833333
vt 0.083333 0.833333
vt 0.083333 0.916667
vt 0.000000 0.916667
vt 0.166667 0.833333
vt 0.166667 0.916667
vt 0.250000 0.833333
vt 0.250000 0.916667
vt 0.333333 0.833333
vt 0.333333 0.916667
vt 0.000000 0.750000
vt 0.083333 0.750000
vt 0.166667 0.750000
vt 0.250000 0.750000
vt 0.333333 0.750000
vt 0.000000 0.666667
vt 0.083333 0.666667
vt 0.166667 0.666667
vt 0.250000 0.666667
vt 0.333333 0.666667
vt 0.000000 0.583333
vt 0.083333 0.583333
vt 0.166667 0.583333
vt 0.250000 0.583333
vt 0.333333 0.583333
vt 0.000000 0.500000
vt 0.083333 0.500000
vt 0.166667 0.500000
vt 0.250000 0.500000
vt 0.333333 0.500000
vt 0.083333 1.000000
vt 0.000000 1.000000
vt 0.166667 1.000000
vt 0.250000 1.000000
vt 0.333333 1.000000
vn 0.0000 0.0000 1.0000
usemtl TS_F_Large
s off
f 52/1/1 11/2/1 2/3/1 22/4/1
f 87/5/1 21/6/1 5/7/1 57/8/1
f 62/9/1 6/10/1 17/11/1 67/12/1
f 67/12/1 17/11/1 18/13/1 72/14/1
f 72/14/1 18/13/1 19/15/1 77/16/1
f 77/16/1 19/15/1 20/17/1 82/18/1
f 82/18/1 20/17/1 21/6/1 87/5/1
f 27/19/1 4/20/1 7/21/1 32/22/1
f 32/22/1 7/21/1 8/23/1 37/24/1
f 37/24/1 8/23/1 9/25/1 42/26/1
f 42/26/1 9/25/1 10/27/1 47/28/1
f 47/28/1 10/27/1 11/2/1 52/1/1
f 20/17/1 51/29/1 56/30/1 21/6/1
f 51/29/1 50/31/1 55/32/1 56/30/1
f 50/31/1 49/33/1 54/34/1 55/32/1
f 49/33/1 48/35/1 53/36/1 54/34/1
f 48/35/1 47/28/1 52/1/1 53/36/1
f 19/15/1 46/37/1 51/29/1 20/17/1
f 46/37/1 45/38/1 50/31/1 51/29/1
f 45/38/1 44/39/1 49/33/1 50/31/1
f 44/39/1 43/40/1 48/35/1 49/33/1
f 43/40/1 42/26/1 47/28/1 48/35/1
f 18/13/1 41/41/1 46/37/1 19/15/1
f 41/41/1 40/42/1 45/38/1 46/37/1
f 40/42/1 39/43/1 44/39/1 45/38/1
f 39/43/1 38/44/1 43/40/1 44/39/1
f 38/44/1 37/24/1 42/26/1 43/40/1
f 17/11/1 36/45/1 41/41/1 18/13/1
f 36/45/1 35/46/1 40/42/1 41/41/1
f 35/46/1 34/47/1 39/43/1 40/42/1
f 34/47/1 33/48/1 38/44/1 39/43/1
f 33/48/1 32/22/1 37/24/1 38/44/1
f 6/10/1 31/49/1 36/45/1 17/11/1
f 31/49/1 30/50/1 35/46/1 36/45/1
f 30/50/1 29/51/1 34/47/1 35/46/1
f 29/51/1 28/52/1 33/48/1 34/47/1
f 28/52/1 27/19/1 32/22/1 33/48/1
f 21/6/1 56/30/1 26/53/1 5/7/1
f 56/30/1 55/32/1 25/54/1 26/53/1
f 55/32/1 54/34/1 24/55/1 25/54/1
f 54/34/1 53/36/1 23/56/1 24/55/1
f 53/36/1 52/1/1 22/4/1 23/56/1
f 13/57/1 86/58/1 91/59/1 12/60/1
f 86/58/1 85/61/1 90/62/1 91/59/1
f 85/61/1 84/63/1 89/64/1 90/62/1
f 84/63/1 83/65/1 88/66/1 89/64/1
f 83/65/1 82/18/1 87/5/1 88/66/1
f 14/67/1 81/68/1 86/58/1 13/57/1
f 81/68/1 80/69/1 85/61/1 86/58/1
f 80/69/1 79/70/1 84/63/1 85/61/1
f 79/70/1 78/71/1 83/65/1 84/63/1
f 78/71/1 77/16/1 82/18/1 83/65/1
f 15/72/1 76/73/1 81/68/1 14/67/1
f 76/73/1 75/74/1 80/69/1 81/68/1
f 75/74/1 74/75/1 79/70/1 80/69/1
f 74/75/1 73/76/1 78/71/1 79/70/1
f 73/76/1 72/14/1 77/16/1 78/71/1
f 16/77/1 71/78/1 76/73/1 15/72/1
f 71/78/1 70/79/1 75/74/1 76/73/1
f 70/79/1 69/80/1 74/75/1 75/74/1
f 69/80/1 68/81/1 73/76/1 74/75/1
f 68/81/1 67/12/1 72/14/1 73/76/1
f 3/82/1 66/83/1 71/78/1 16/77/1
f 66/83/1 65/84/1 70/79/1 71/78/1
f 65/84/1 64/85/1 69/80/1 70/79/1
f 64/85/1 63/86/1 68/81/1 69/80/1
f 63/86/1 62/9/1 67/12/1 68/81/1
f 12/60/1 91/59/1 61/87/1 1/88/1
f 91/59/1 90/62/1 60/89/1 61/87/1
f 90/62/1 89/64/1 59/90/1 60/89/1
f 89/64/1 88/66/1 58/91/1 59/90/1
f 88/66/1 87/5/1 57/8/1 58/91/1
