# Blender v3.1.2 OBJ File: 'HangerScene_02.blend'
# www.blender.org
mtllib TS_Floor_C_lowpoly.mtl
o TS_Floor_C_lowpoly_Plane.011
v 0.500000 0.000000 0.000000
v 0.500000 -0.500000 0.000000
v 0.000000 -0.500000 0.000000
v 0.000000 0.000000 0.000000
v 0.416667 0.000000 0.000000
v 0.333333 0.000000 0.000000
v 0.250000 0.000000 0.000000
v 0.166667 0.000000 0.000000
v 0.083333 0.000000 0.000000
v 0.083333 -0.500000 0.000000
v 0.166667 -0.500000 0.000000
v 0.250000 -0.500000 0.000000
v 0.333333 -0.500000 0.000000
v 0.416667 -0.500000 0.000000
v 0.000000 -0.416667 0.000000
v 0.000000 -0.333333 0.000000
v 0.000000 -0.250000 0.000000
v 0.000000 -0.166667 0.000000
v 0.000000 -0.083333 0.000000
v 0.500000 -0.416667 0.000000
v 0.500000 -0.333333 0.000000
v 0.500000 -0.250000 0.000000
v 0.500000 -0.166667 0.000000
v 0.500000 -0.083333 0.000000
v 0.083333 -0.416667 0.000000
v 0.083333 -0.333333 0.000000
v 0.083333 -0.250000 0.000000
v 0.083333 -0.166667 0.000000
v 0.083333 -0.083333 0.000000
v 0.166667 -0.416667 0.000000
v 0.166667 -0.333333 0.000000
v 0.166667 -0.250000 0.000000
v 0.166667 -0.166667 0.000000
v 0.166667 -0.083333 0.000000
v 0.250000 -0.416667 0.000000
v 0.250000 -0.333333 0.000000
v 0.250000 -0.250000 0.000000
v 0.250000 -0.166667 0.000000
v 0.250000 -0.083333 0.000000
v 0.333333 -0.416667 0.000000
v 0.333333 -0.333333 0.000000
v 0.333333 -0.250000 0.000000
v 0.333333 -0.166667 0.000000
v 0.333333 -0.083333 0.000000
v 0.416667 -0.416667 0.000000
v 0.416667 -0.333333 0.000000
v 0.416667 -0.250000 0.000000
v 0.416667 -0.166667 0.000000
v 0.416667 -0.083333 0.000000
vt 0.916667 0.416667
vt 1.000000 0.416667
vt 1.000000 0.500000
vt 0.916667 0.500000
vt 0.500000 0.416667
vt 0.583333 0.416667
vt 0.583333 0.500000
vt 0.500000 0.500000
vt 0.666667 0.416667
vt 0.666667 0.500000
vt 0.750000 0.416667
vt 0.750000 0.500000
vt 0.833333 0.416667
vt 0.833333 0.500000
vt 0.833333 0.000000
vt 0.916667 0.000000
vt 0.916667 0.083333
vt 0.833333 0.083333
vt 0.916667 0.166667
vt 0.833333 0.166667
vt 0.916667 0.250000
vt 0.833333 0.250000
vt 0.916667 0.333333
vt 0.833333 0.333333
vt 0.750000 0.000000
vt 0.750000 0.083333
vt 0.750000 0.166667
vt 0.750000 0.250000
vt 0.750000 0.333333
vt 0.666667 0.000000
vt 0.666667 0.083333
vt 0.666667 0.166667
vt 0.666667 0.250000
vt 0.666667 0.333333
vt 0.583333 0.000000
vt 0.583333 0.083333
vt 0.583333 0.166667
vt 0.583333 0.250000
vt 0.583333 0.333333
vt 0.500000 0.000000
vt 0.500000 0.083333
vt 0.500000 0.166667
vt 0.500000 0.250000
vt 0.500000 0.333333
vt 1.000000 0.000000
vt 1.000000 0.083333
vt 1.000000 0.166667
vt 1.000000 0.250000
vt 1.000000 0.333333
vn 0.0000 0.0000 1.0000
usemtl TS_F_LargeSplit_02
s off
f 49/1/1 24/2/1 1/3/1 5/4/1
f 19/5/1 29/6/1 9/7/1 4/8/1
f 29/6/1 34/9/1 8/10/1 9/7/1
f 34/9/1 39/11/1 7/12/1 8/10/1
f 39/11/1 44/13/1 6/14/1 7/12/1
f 44/13/1 49/1/1 5/4/1 6/14/1
f 13/15/1 14/16/1 45/17/1 40/18/1
f 40/18/1 45/17/1 46/19/1 41/20/1
f 41/20/1 46/19/1 47/21/1 42/22/1
f 42/22/1 47/21/1 48/23/1 43/24/1
f 43/24/1 48/23/1 49/1/1 44/13/1
f 12/25/1 13/15/1 40/18/1 35/26/1
f 35/26/1 40/18/1 41/20/1 36/27/1
f 36/27/1 41/20/1 42/22/1 37/28/1
f 37/28/1 42/22/1 43/24/1 38/29/1
f 38/29/1 43/24/1 44/13/1 39/11/1
f 11/30/1 12/25/1 35/26/1 30/31/1
f 30/31/1 35/26/1 36/27/1 31/32/1
f 31/32/1 36/27/1 37/28/1 32/33/1
f 32/33/1 37/28/1 38/29/1 33/34/1
f 33/34/1 38/29/1 39/11/1 34/9/1
f 10/35/1 11/30/1 30/31/1 25/36/1
f 25/36/1 30/31/1 31/32/1 26/37/1
f 26/37/1 31/32/1 32/33/1 27/38/1
f 27/38/1 32/33/1 33/34/1 28/39/1
f 28/39/1 33/34/1 34/9/1 29/6/1
f 3/40/1 10/35/1 25/36/1 15/41/1
f 15/41/1 25/36/1 26/37/1 16/42/1
f 16/42/1 26/37/1 27/38/1 17/43/1
f 17/43/1 27/38/1 28/39/1 18/44/1
f 18/44/1 28/39/1 29/6/1 19/5/1
f 14/16/1 2/45/1 20/46/1 45/17/1
f 45/17/1 20/46/1 21/47/1 46/19/1
f 46/19/1 21/47/1 22/48/1 47/21/1
f 47/21/1 22/48/1 23/49/1 48/23/1
f 48/23/1 23/49/1 24/2/1 49/1/1
