# Blender v3.1.2 OBJ File: 'HangerScene_02.blend'
# www.blender.org
mtllib TS_WallsCeiling_D_lowpoly.mtl
o TS_WallsCeiling_D_lowpoly_Plane.007
v 0.500000 -0.375000 -0.000000
v -0.500000 -0.375000 -0.000000
v 0.500000 -0.312500 -0.000000
v -0.500000 -0.312500 -0.000000
v -0.500000 -0.343750 -0.000000
v 0.500000 -0.343750 -0.000000
v 0.468750 -0.375000 -0.000000
v 0.437500 -0.375000 -0.000000
v 0.406250 -0.375000 -0.000000
v 0.375000 -0.375000 -0.000000
v 0.343750 -0.375000 -0.000000
v 0.312500 -0.375000 -0.000000
v 0.281250 -0.375000 -0.000000
v 0.250000 -0.375000 -0.000000
v 0.218750 -0.375000 -0.000000
v 0.187500 -0.375000 -0.000000
v 0.156250 -0.375000 -0.000000
v 0.125000 -0.375000 -0.000000
v 0.093750 -0.375000 -0.000000
v 0.062500 -0.375000 -0.000000
v 0.031250 -0.375000 -0.000000
v 0.000000 -0.375000 -0.000000
v -0.031250 -0.375000 -0.000000
v -0.062500 -0.375000 -0.000000
v -0.093750 -0.375000 -0.000000
v -0.125000 -0.375000 -0.000000
v -0.156250 -0.375000 -0.000000
v -0.187500 -0.375000 -0.000000
v -0.218750 -0.375000 -0.000000
v -0.250000 -0.375000 -0.000000
v -0.281250 -0.375000 -0.000000
v -0.312500 -0.375000 -0.000000
v -0.343750 -0.375000 -0.000000
v -0.375000 -0.375000 -0.000000
v -0.406250 -0.375000 -0.000000
v -0.437500 -0.375000 -0.000000
v -0.468750 -0.375000 -0.000000
v 0.468750 -0.312500 -0.000000
v 0.437500 -0.312500 -0.000000
v 0.406250 -0.312500 -0.000000
v 0.375000 -0.312500 -0.000000
v 0.343750 -0.312500 -0.000000
v 0.312500 -0.312500 -0.000000
v 0.281250 -0.312500 -0.000000
v 0.250000 -0.312500 -0.000000
v 0.218750 -0.312500 -0.000000
v 0.187500 -0.312500 -0.000000
v 0.156250 -0.312500 -0.000000
v 0.125000 -0.312500 -0.000000
v 0.093750 -0.312500 -0.000000
v 0.062500 -0.312500 -0.000000
v 0.031250 -0.312500 -0.000000
v 0.000000 -0.312500 -0.000000
v -0.031250 -0.312500 -0.000000
v -0.062500 -0.312500 -0.000000
v -0.093750 -0.312500 -0.000000
v -0.125000 -0.312500 -0.000000
v -0.156250 -0.312500 -0.000000
v -0.187500 -0.312500 -0.000000
v -0.218750 -0.312500 -0.000000
v -0.250000 -0.312500 -0.000000
v -0.281250 -0.312500 -0.000000
v -0.312500 -0.312500 -0.000000
v -0.343750 -0.312500 -0.000000
v -0.375000 -0.312500 -0.000000
v -0.406250 -0.312500 -0.000000
v -0.437500 -0.312500 -0.000000
v -0.468750 -0.312500 -0.000000
v 0.468750 -0.343750 -0.000000
v 0.437500 -0.343750 -0.000000
v 0.406250 -0.343750 -0.000000
v 0.375000 -0.343750 -0.000000
v 0.343750 -0.343750 -0.000000
v 0.312500 -0.343750 -0.000000
v 0.281250 -0.343750 -0.000000
v 0.250000 -0.343750 -0.000000
v 0.218750 -0.343750 -0.000000
v 0.187500 -0.343750 -0.000000
v 0.156250 -0.343750 -0.000000
v 0.125000 -0.343750 -0.000000
v 0.093750 -0.343750 -0.000000
v 0.062500 -0.343750 -0.000000
v 0.031250 -0.343750 -0.000000
v 0.000000 -0.343750 -0.000000
v -0.031250 -0.343750 -0.000000
v -0.062500 -0.343750 -0.000000
v -0.093750 -0.343750 -0.000000
v -0.125000 -0.343750 -0.000000
v -0.156250 -0.343750 -0.000000
v -0.187500 -0.343750 -0.000000
v -0.218750 -0.343750 -0.000000
v -0.250000 -0.343750 -0.000000
v -0.281250 -0.343750 -0.000000
v -0.312500 -0.343750 -0.000000
v -0.343750 -0.343750 -0.000000
v -0.375000 -0.343750 -0.000000
v -0.406250 -0.343750 -0.000000
v -0.437500 -0.343750 -0.000000
v -0.468750 -0.343750 -0.000000
vt 0.968750 0.156250
vt 1.000000 0.156250
vt 1.000000 0.187500
vt 0.968750 0.187500
vt 0.968750 0.125000
vt 1.000000 0.125000
vt 0.000000 0.125000
vt 0.031250 0.125000
vt 0.031250 0.156250
vt 0.000000 0.156250
vt 0.062500 0.125000
vt 0.062500 0.156250
vt 0.093750 0.125000
vt 0.093750 0.156250
vt 0.125000 0.125000
vt 0.125000 0.156250
vt 0.156250 0.125000
vt 0.156250 0.156250
vt 0.187500 0.125000
vt 0.187500 0.156250
vt 0.218750 0.125000
vt 0.218750 0.156250
vt 0.250000 0.125000
vt 0.250000 0.156250
vt 0.281250 0.125000
vt 0.281250 0.156250
vt 0.312500 0.125000
vt 0.312500 0.156250
vt 0.343750 0.125000
vt 0.343750 0.156250
vt 0.375000 0.125000
vt 0.375000 0.156250
vt 0.406250 0.125000
vt 0.406250 0.156250
vt 0.437500 0.125000
vt 0.437500 0.156250
vt 0.468750 0.125000
vt 0.468750 0.156250
vt 0.500000 0.125000
vt 0.500000 0.156250
vt 0.531250 0.125000
vt 0.531250 0.156250
vt 0.562500 0.125000
vt 0.562500 0.156250
vt 0.593750 0.125000
vt 0.593750 0.156250
vt 0.625000 0.125000
vt 0.625000 0.156250
vt 0.656250 0.125000
vt 0.656250 0.156250
vt 0.687500 0.125000
vt 0.687500 0.156250
vt 0.718750 0.125000
vt 0.718750 0.156250
vt 0.750000 0.125000
vt 0.750000 0.156250
vt 0.781250 0.125000
vt 0.781250 0.156250
vt 0.812500 0.125000
vt 0.812500 0.156250
vt 0.843750 0.125000
vt 0.843750 0.156250
vt 0.875000 0.125000
vt 0.875000 0.156250
vt 0.906250 0.125000
vt 0.906250 0.156250
vt 0.937500 0.125000
vt 0.937500 0.156250
vt 0.031250 0.187500
vt 0.000000 0.187500
vt 0.062500 0.187500
vt 0.093750 0.187500
vt 0.125000 0.187500
vt 0.156250 0.187500
vt 0.187500 0.187500
vt 0.218750 0.187500
vt 0.250000 0.187500
vt 0.281250 0.187500
vt 0.312500 0.187500
vt 0.343750 0.187500
vt 0.375000 0.187500
vt 0.406250 0.187500
vt 0.437500 0.187500
vt 0.468750 0.187500
vt 0.500000 0.187500
vt 0.531250 0.187500
vt 0.562500 0.187500
vt 0.593750 0.187500
vt 0.625000 0.187500
vt 0.656250 0.187500
vt 0.687500 0.187500
vt 0.718750 0.187500
vt 0.750000 0.187500
vt 0.781250 0.187500
vt 0.812500 0.187500
vt 0.843750 0.187500
vt 0.875000 0.187500
vt 0.906250 0.187500
vt 0.937500 0.187500
vn 0.0000 -0.0000 1.0000
usemtl TS_WC_SmallTrim_02
s off
f 69/1/1 6/2/1 3/3/1 38/4/1
f 7/5/1 1/6/1 6/2/1 69/1/1
f 2/7/1 37/8/1 99/9/1 5/10/1
f 37/8/1 36/11/1 98/12/1 99/9/1
f 36/11/1 35/13/1 97/14/1 98/12/1
f 35/13/1 34/15/1 96/16/1 97/14/1
f 34/15/1 33/17/1 95/18/1 96/16/1
f 33/17/1 32/19/1 94/20/1 95/18/1
f 32/19/1 31/21/1 93/22/1 94/20/1
f 31/21/1 30/23/1 92/24/1 93/22/1
f 30/23/1 29/25/1 91/26/1 92/24/1
f 29/25/1 28/27/1 90/28/1 91/26/1
f 28/27/1 27/29/1 89/30/1 90/28/1
f 27/29/1 26/31/1 88/32/1 89/30/1
f 26/31/1 25/33/1 87/34/1 88/32/1
f 25/33/1 24/35/1 86/36/1 87/34/1
f 24/35/1 23/37/1 85/38/1 86/36/1
f 23/37/1 22/39/1 84/40/1 85/38/1
f 22/39/1 21/41/1 83/42/1 84/40/1
f 21/41/1 20/43/1 82/44/1 83/42/1
f 20/43/1 19/45/1 81/46/1 82/44/1
f 19/45/1 18/47/1 80/48/1 81/46/1
f 18/47/1 17/49/1 79/50/1 80/48/1
f 17/49/1 16/51/1 78/52/1 79/50/1
f 16/51/1 15/53/1 77/54/1 78/52/1
f 15/53/1 14/55/1 76/56/1 77/54/1
f 14/55/1 13/57/1 75/58/1 76/56/1
f 13/57/1 12/59/1 74/60/1 75/58/1
f 12/59/1 11/61/1 73/62/1 74/60/1
f 11/61/1 10/63/1 72/64/1 73/62/1
f 10/63/1 9/65/1 71/66/1 72/64/1
f 9/65/1 8/67/1 70/68/1 71/66/1
f 8/67/1 7/5/1 69/1/1 70/68/1
f 5/10/1 99/9/1 68/69/1 4/70/1
f 99/9/1 98/12/1 67/71/1 68/69/1
f 98/12/1 97/14/1 66/72/1 67/71/1
f 97/14/1 96/16/1 65/73/1 66/72/1
f 96/16/1 95/18/1 64/74/1 65/73/1
f 95/18/1 94/20/1 63/75/1 64/74/1
f 94/20/1 93/22/1 62/76/1 63/75/1
f 93/22/1 92/24/1 61/77/1 62/76/1
f 92/24/1 91/26/1 60/78/1 61/77/1
f 91/26/1 90/28/1 59/79/1 60/78/1
f 90/28/1 89/30/1 58/80/1 59/79/1
f 89/30/1 88/32/1 57/81/1 58/80/1
f 88/32/1 87/34/1 56/82/1 57/81/1
f 87/34/1 86/36/1 55/83/1 56/82/1
f 86/36/1 85/38/1 54/84/1 55/83/1
f 85/38/1 84/40/1 53/85/1 54/84/1
f 84/40/1 83/42/1 52/86/1 53/85/1
f 83/42/1 82/44/1 51/87/1 52/86/1
f 82/44/1 81/46/1 50/88/1 51/87/1
f 81/46/1 80/48/1 49/89/1 50/88/1
f 80/48/1 79/50/1 48/90/1 49/89/1
f 79/50/1 78/52/1 47/91/1 48/90/1
f 78/52/1 77/54/1 46/92/1 47/91/1
f 77/54/1 76/56/1 45/93/1 46/92/1
f 76/56/1 75/58/1 44/94/1 45/93/1
f 75/58/1 74/60/1 43/95/1 44/94/1
f 74/60/1 73/62/1 42/96/1 43/95/1
f 73/62/1 72/64/1 41/97/1 42/96/1
f 72/64/1 71/66/1 40/98/1 41/97/1
f 71/66/1 70/68/1 39/99/1 40/98/1
f 70/68/1 69/1/1 38/4/1 39/99/1
